<?xml version="1.0" encoding="UTF-8"?>
<!DOCTYPE svg PUBLIC "-//W3C//DTD SVG 1.1//EN" "http://www.w3.org/Graphics/SVG/1.1/DTD/svg11.dtd">
<svg xmlns="http://www.w3.org/2000/svg" version="1.1" width="512px" height="512px" style="shape-rendering:geometricPrecision; text-rendering:geometricPrecision; image-rendering:optimizeQuality; fill-rule:evenodd; clip-rule:evenodd" xmlns:xlink="http://www.w3.org/1999/xlink">
<g><path style="opacity:1" fill="#2a65ea" d="M 48.5,-0.5 C 186.5,-0.5 324.5,-0.5 462.5,-0.5C 488.5,6.16667 504.833,22.5 511.5,48.5C 511.5,186.5 511.5,324.5 511.5,462.5C 504.833,488.5 488.5,504.833 462.5,511.5C 324.5,511.5 186.5,511.5 48.5,511.5C 22.5,504.833 6.16667,488.5 -0.5,462.5C -0.5,324.5 -0.5,186.5 -0.5,48.5C 6.16667,22.5 22.5,6.16667 48.5,-0.5 Z"/></g>
<g><path style="opacity:1" fill="#fefffe" d="M 304.5,152.5 C 304.5,221.5 304.5,290.5 304.5,359.5C 288.5,359.5 272.5,359.5 256.5,359.5C 256.5,290.5 256.5,221.5 256.5,152.5C 272.5,152.5 288.5,152.5 304.5,152.5 Z"/></g>
<g><path style="opacity:1" fill="#9bb7f4" d="M 304.5,152.5 C 305.499,221.665 305.833,290.998 305.5,360.5C 288.991,360.83 272.658,360.496 256.5,359.5C 272.5,359.5 288.5,359.5 304.5,359.5C 304.5,290.5 304.5,221.5 304.5,152.5 Z"/></g>
<g><path style="opacity:1" fill="#fefefe" d="M 139.5,170.5 C 186.524,167.569 218.357,187.903 235,231.5C 244.281,273.764 230.781,306.598 194.5,330C 152.898,349.303 116.732,342.136 86,308.5C 61.7394,273.708 61.4061,238.708 85,203.5C 99.2163,185.975 117.383,174.975 139.5,170.5 Z"/></g>
<g><path style="opacity:1" fill="#7da0f1" d="M 359.5,204.5 C 348.5,204.5 337.5,204.5 326.5,204.5C 326.5,215.5 326.5,226.5 326.5,237.5C 325.505,226.346 325.172,215.012 325.5,203.5C 337.012,203.172 348.346,203.505 359.5,204.5 Z"/></g>
<g><path style="opacity:1" fill="#fefefe" d="M 359.5,204.5 C 365.76,210.423 372.094,216.423 378.5,222.5C 384.854,216.478 391.187,210.478 397.5,204.5C 408.167,204.5 418.833,204.5 429.5,204.5C 429.5,215.5 429.5,226.5 429.5,237.5C 423.703,243.798 417.703,249.965 411.5,256C 417.667,262.167 423.833,268.333 430,274.5C 430.5,285.495 430.667,296.495 430.5,307.5C 419.162,307.667 407.828,307.5 396.5,307C 390.652,300.985 384.652,295.152 378.5,289.5C 372.348,295.152 366.348,300.985 360.5,307C 349.172,307.5 337.838,307.667 326.5,307.5C 326.333,296.495 326.5,285.495 327,274.5C 333.212,268.624 339.045,262.457 344.5,256C 339.008,249.342 333.008,243.175 326.5,237.5C 326.5,226.5 326.5,215.5 326.5,204.5C 337.5,204.5 348.5,204.5 359.5,204.5 Z"/></g>
<g><path style="opacity:1" fill="#afc5f6" d="M 397.5,204.5 C 408.321,203.505 419.321,203.172 430.5,203.5C 430.828,215.012 430.495,226.346 429.5,237.5C 429.5,226.5 429.5,215.5 429.5,204.5C 418.833,204.5 408.167,204.5 397.5,204.5 Z"/></g>
<g><path style="opacity:1" fill="#2d66ea" d="M 147.5,229.5 C 162.385,228.355 172.552,234.688 178,248.5C 180.383,265.248 173.55,276.081 157.5,281C 142.449,282.391 132.616,275.891 128,261.5C 125.68,245.344 132.18,234.677 147.5,229.5 Z"/></g>
</svg>
